<?xml version="1.0" encoding="UTF-8" standalone="no"?>
<!DOCTYPE svg PUBLIC "-//W3C//DTD SVG 1.1//EN"
 "http://www.w3.org/Graphics/SVG/1.1/DTD/svg11.dtd">
<!-- Generated by graphviz version 2.43.0 (0)
 -->
<!-- Pages: 1 -->
<svg width="1600pt" height="1632pt"
 viewBox="0.00 0.00 1599.83 1631.51" xmlns="http://www.w3.org/2000/svg" xmlns:xlink="http://www.w3.org/1999/xlink">
<g id="graph0" class="graph" transform="scale(1 1) rotate(0) translate(4 1627.51)">
<polygon fill="#fafafa" stroke="transparent" points="-4,4 -4,-1627.51 1595.83,-1627.51 1595.83,4 -4,4"/>
<!-- premier&#45;liga&#45;&gt;premier&#45;league -->
<g id="edge1" class="edge">
<title>premier&#45;liga&#45;&gt;premier&#45;league</title>
<path fill="none" stroke="#ffe9d0" stroke-width="0.36" d="M1008.39,-905.63C1076.31,-938.97 1153.71,-976.26 1222.43,-1008.74"/>
<polygon fill="#ffe9d0" stroke="#ffe9d0" stroke-width="0.36" points="1221.09,-1011.98 1231.63,-1013.09 1224.08,-1005.65 1221.09,-1011.98"/>
</g>
<!-- premier&#45;liga&#45;&gt;eredivisie -->
<g id="edge2" class="edge">
<title>premier&#45;liga&#45;&gt;eredivisie</title>
<path fill="none" stroke="#ffe5c7" stroke-width="0.78" d="M862.84,-992.05C880.74,-1073.9 902.81,-1170.74 922.45,-1253.7"/>
<polygon fill="#ffe5c7" stroke="#ffe5c7" stroke-width="0.78" points="919.06,-1254.56 924.77,-1263.49 925.87,-1252.95 919.06,-1254.56"/>
</g>
<!-- premier&#45;liga&#45;&gt;liga&#45;nos -->
<g id="edge3" class="edge">
<title>premier&#45;liga&#45;&gt;liga&#45;nos</title>
<path fill="none" stroke="#ffe0bb" stroke-width="1.34" d="M675.9,-992.02C639.79,-1036.81 601.43,-1084.92 565.8,-1130.08"/>
<polygon fill="#ffe0bb" stroke="#ffe0bb" stroke-width="1.34" points="562.86,-1128.16 559.42,-1138.18 568.36,-1132.49 562.86,-1128.16"/>
</g>
<!-- premier&#45;liga&#45;&gt;ligue&#45;1 -->
<g id="edge4" class="edge">
<title>premier&#45;liga&#45;&gt;ligue&#45;1</title>
<path fill="none" stroke="#ffe1be" stroke-width="1.19" d="M647.93,-805.63C561.47,-804.82 457.85,-804.79 370.12,-805.54"/>
<polygon fill="#ffe1be" stroke="#ffe1be" stroke-width="1.19" points="370.01,-802.04 360.05,-805.63 370.08,-809.04 370.01,-802.04"/>
</g>
<!-- premier&#45;liga&#45;&gt;serie&#45;a -->
<g id="edge5" class="edge">
<title>premier&#45;liga&#45;&gt;serie&#45;a</title>
<path fill="none" stroke="#ffe2c0" stroke-width="1.12" d="M692.6,-631.6C657.22,-586.69 618.78,-538.43 582.33,-493.15"/>
<polygon fill="#ffe2c0" stroke="#ffe2c0" stroke-width="1.12" points="585.02,-490.92 576.02,-485.32 579.57,-495.31 585.02,-490.92"/>
</g>
<!-- premier&#45;liga&#45;&gt;1&#45;bundesliga -->
<g id="edge6" class="edge">
<title>premier&#45;liga&#45;&gt;1&#45;bundesliga</title>
<path fill="none" stroke="#ffdfba" stroke-width="1.41" d="M875.44,-631.67C894.89,-549.78 917.04,-452.84 935.27,-369.81"/>
<polygon fill="#ffdfba" stroke="#ffdfba" stroke-width="1.41" points="938.69,-370.53 937.41,-360.02 931.85,-369.04 938.69,-370.53"/>
</g>
<!-- premier&#45;liga&#45;&gt;primera&#45;division -->
<g id="edge7" class="edge">
<title>premier&#45;liga&#45;&gt;primera&#45;division</title>
<path fill="none" stroke="#ffd7a8" stroke-width="2.24" d="M1008.26,-731.9C1076.27,-699.82 1153.79,-662.53 1222.6,-628.81"/>
<polygon fill="#ffd7a8" stroke="#ffd7a8" stroke-width="2.24" points="1224.37,-631.84 1231.81,-624.29 1221.29,-625.56 1224.37,-631.84"/>
</g>
<!-- premier&#45;league&#45;&gt;premier&#45;liga -->
<g id="edge8" class="edge">
<title>premier&#45;league&#45;&gt;premier&#45;liga</title>
<path fill="none" stroke="#ffe9d0" stroke-width="0.36" d="M1231.44,-999.03C1163.52,-965.69 1086.12,-928.41 1017.4,-895.92"/>
<polygon fill="#ffe9d0" stroke="#ffe9d0" stroke-width="0.36" points="1018.74,-892.68 1008.2,-891.58 1015.75,-899.01 1018.74,-892.68"/>
</g>
<!-- premier&#45;league&#45;&gt;eredivisie -->
<g id="edge9" class="edge">
<title>premier&#45;league&#45;&gt;eredivisie</title>
<path fill="none" stroke="#ffe3c3" stroke-width="0.97" d="M1231.73,-1228.06C1208.24,-1246.62 1184.12,-1265.82 1160.5,-1284.76"/>
<polygon fill="#ffe3c3" stroke="#ffe3c3" stroke-width="0.97" points="1158.12,-1282.18 1152.51,-1291.17 1162.5,-1287.64 1158.12,-1282.18"/>
</g>
<!-- premier&#45;league&#45;&gt;liga&#45;nos -->
<g id="edge10" class="edge">
<title>premier&#45;league&#45;&gt;liga&#45;nos</title>
<path fill="none" stroke="#ffe5c7" stroke-width="0.78" d="M1231.75,-1128.53C1056.77,-1166.59 792.09,-1226.96 613.85,-1269.44"/>
<polygon fill="#ffe5c7" stroke="#ffe5c7" stroke-width="0.78" points="613.02,-1266.04 604.1,-1271.76 614.64,-1272.85 613.02,-1266.04"/>
</g>
<!-- premier&#45;league&#45;&gt;ligue&#45;1 -->
<g id="edge11" class="edge">
<title>premier&#45;league&#45;&gt;ligue&#45;1</title>
<path fill="none" stroke="#ffe1bf" stroke-width="1.17" d="M1231.5,-1046.67C1001.36,-991.71 605.01,-901.22 370.22,-850.01"/>
<polygon fill="#ffe1bf" stroke="#ffe1bf" stroke-width="1.17" points="370.72,-846.54 360.2,-847.83 369.23,-853.38 370.72,-846.54"/>
</g>
<!-- premier&#45;league&#45;&gt;serie&#45;a -->
<g id="edge12" class="edge">
<title>premier&#45;league&#45;&gt;serie&#45;a</title>
<path fill="none" stroke="#ffdab0" stroke-width="1.87" d="M1231.7,-942.37C1056.07,-799.99 790.11,-587.89 611.88,-448.07"/>
<polygon fill="#ffdab0" stroke="#ffdab0" stroke-width="1.87" points="614.02,-445.3 603.99,-441.88 609.7,-450.8 614.02,-445.3"/>
</g>
<!-- premier&#45;league&#45;&gt;1&#45;bundesliga -->
<g id="edge13" class="edge">
<title>premier&#45;league&#45;&gt;1&#45;bundesliga</title>
<path fill="none" stroke="#ffdab0" stroke-width="1.85" d="M1331.21,-912.89C1257.44,-755.89 1148.17,-528.89 1069.55,-369.23"/>
<polygon fill="#ffdab0" stroke="#ffdab0" stroke-width="1.85" points="1072.69,-367.67 1065.13,-360.24 1066.41,-370.76 1072.69,-367.67"/>
</g>
<!-- premier&#45;league&#45;&gt;primera&#45;division -->
<g id="edge14" class="edge">
<title>premier&#45;league&#45;&gt;primera&#45;division</title>
<path fill="none" stroke="#ffd099" stroke-width="2.92" d="M1418.18,-912.67C1418.68,-851.51 1418.71,-783 1418.26,-721.06"/>
<polygon fill="#ffd099" stroke="#ffd099" stroke-width="2.92" points="1421.75,-720.75 1418.18,-710.78 1414.75,-720.81 1421.75,-720.75"/>
</g>
<!-- eredivisie&#45;&gt;premier&#45;liga -->
<g id="edge15" class="edge">
<title>eredivisie&#45;&gt;premier&#45;liga</title>
<path fill="none" stroke="#ffe1be" stroke-width="1.19" d="M937.35,-1263.21C919.45,-1181.36 897.38,-1084.52 877.74,-1001.56"/>
<polygon fill="#ffe1be" stroke="#ffe1be" stroke-width="1.19" points="881.13,-1000.7 875.42,-991.77 874.32,-1002.31 881.13,-1000.7"/>
</g>
<!-- eredivisie&#45;&gt;premier&#45;league -->
<g id="edge16" class="edge">
<title>eredivisie&#45;&gt;premier&#45;league</title>
<path fill="none" stroke="#ffe0bb" stroke-width="1.34" d="M1152.29,-1308.36C1175.78,-1289.8 1199.9,-1270.6 1223.52,-1251.66"/>
<polygon fill="#ffe0bb" stroke="#ffe0bb" stroke-width="1.34" points="1225.9,-1254.23 1231.51,-1245.24 1221.52,-1248.77 1225.9,-1254.23"/>
</g>
<!-- eredivisie&#45;&gt;liga&#45;nos -->
<g id="edge17" class="edge">
<title>eredivisie&#45;&gt;liga&#45;nos</title>
<path fill="none" stroke="#ffe0bc" stroke-width="1.29" d="M791.83,-1395.78C734.92,-1382.33 671.88,-1367.92 614.3,-1355.2"/>
<polygon fill="#ffe0bc" stroke="#ffe0bc" stroke-width="1.29" points="614.88,-1351.75 604.36,-1353.01 613.37,-1358.58 614.88,-1351.75"/>
</g>
<!-- eredivisie&#45;&gt;ligue&#45;1 -->
<g id="edge18" class="edge">
<title>eredivisie&#45;&gt;ligue&#45;1</title>
<path fill="none" stroke="#ffdcb3" stroke-width="1.73" d="M792.07,-1292.45C665.49,-1189.88 496.53,-1055.14 368.19,-954.4"/>
<polygon fill="#ffdcb3" stroke="#ffdcb3" stroke-width="1.73" points="370.21,-951.54 360.18,-948.12 365.89,-957.05 370.21,-951.54"/>
</g>
<!-- eredivisie&#45;&gt;serie&#45;a -->
<g id="edge19" class="edge">
<title>eredivisie&#45;&gt;serie&#45;a</title>
<path fill="none" stroke="#ffdaaf" stroke-width="1.9" d="M891.1,-1263.44C792.44,-1053.5 626.15,-708.08 520.86,-494.31"/>
<polygon fill="#ffdaaf" stroke="#ffdaaf" stroke-width="1.9" points="523.92,-492.6 516.36,-485.18 517.64,-495.7 523.92,-492.6"/>
</g>
<!-- eredivisie&#45;&gt;1&#45;bundesliga -->
<g id="edge20" class="edge">
<title>eredivisie&#45;&gt;1&#45;bundesliga</title>
<path fill="none" stroke="#ffbb6b" stroke-width="5.04" d="M977.08,-1263.48C979.53,-1026.71 979.56,-612.46 977.19,-370.56"/>
<polygon fill="#ffbb6b" stroke="#ffbb6b" stroke-width="5.04" points="981.59,-370.2 977.09,-360.24 972.78,-370.28 981.59,-370.2"/>
</g>
<!-- eredivisie&#45;&gt;primera&#45;division -->
<g id="edge21" class="edge">
<title>eredivisie&#45;&gt;primera&#45;division</title>
<path fill="none" stroke="#ffd29e" stroke-width="2.7" d="M1065.08,-1263.36C1142.39,-1106.54 1251.52,-879.98 1326.62,-720.39"/>
<polygon fill="#ffd29e" stroke="#ffd29e" stroke-width="2.7" points="1329.98,-721.47 1331.06,-710.93 1323.64,-718.49 1329.98,-721.47"/>
</g>
<!-- liga&#45;nos&#45;&gt;premier&#45;liga -->
<g id="edge22" class="edge">
<title>liga&#45;nos&#45;&gt;premier&#45;liga</title>
<path fill="none" stroke="#ffd8ab" stroke-width="2.09" d="M576.08,-1138.11C612.18,-1093.33 650.55,-1045.21 686.17,-1000.06"/>
<polygon fill="#ffd8ab" stroke="#ffd8ab" stroke-width="2.09" points="689.12,-1001.98 692.56,-991.96 683.62,-997.64 689.12,-1001.98"/>
</g>
<!-- liga&#45;nos&#45;&gt;premier&#45;league -->
<g id="edge23" class="edge">
<title>liga&#45;nos&#45;&gt;premier&#45;league</title>
<path fill="none" stroke="#ffe2c0" stroke-width="1.12" d="M604.06,-1282.76C779.04,-1244.7 1043.72,-1184.33 1221.95,-1141.85"/>
<polygon fill="#ffe2c0" stroke="#ffe2c0" stroke-width="1.12" points="1222.79,-1145.25 1231.7,-1139.53 1221.16,-1138.44 1222.79,-1145.25"/>
</g>
<!-- liga&#45;nos&#45;&gt;eredivisie -->
<g id="edge24" class="edge">
<title>liga&#45;nos&#45;&gt;eredivisie</title>
<path fill="none" stroke="#ffe1be" stroke-width="1.22" d="M604.34,-1366.11C661.25,-1379.56 724.29,-1393.97 781.88,-1406.69"/>
<polygon fill="#ffe1be" stroke="#ffe1be" stroke-width="1.22" points="781.29,-1410.14 791.81,-1408.87 782.8,-1403.3 781.29,-1410.14"/>
</g>
<!-- liga&#45;nos&#45;&gt;ligue&#45;1 -->
<g id="edge25" class="edge">
<title>liga&#45;nos&#45;&gt;ligue&#45;1</title>
<path fill="none" stroke="#ffcc92" stroke-width="3.26" d="M344.48,-1138.38C323.44,-1093.92 300.48,-1046.16 278.56,-1001.27"/>
<polygon fill="#ffcc92" stroke="#ffcc92" stroke-width="3.26" points="281.58,-999.48 274.05,-992.03 275.29,-1002.55 281.58,-999.48"/>
</g>
<!-- liga&#45;nos&#45;&gt;serie&#45;a -->
<g id="edge26" class="edge">
<title>liga&#45;nos&#45;&gt;serie&#45;a</title>
<path fill="none" stroke="#ffd4a2" stroke-width="2.51" d="M429.29,-1138.11C431.17,-957.28 431.21,-679.87 429.39,-495.53"/>
<polygon fill="#ffd4a2" stroke="#ffd4a2" stroke-width="2.51" points="432.89,-495.42 429.29,-485.46 425.89,-495.49 432.89,-495.42"/>
</g>
<!-- liga&#45;nos&#45;&gt;1&#45;bundesliga -->
<g id="edge27" class="edge">
<title>liga&#45;nos&#45;&gt;1&#45;bundesliga</title>
<path fill="none" stroke="#ffdeb8" stroke-width="1.51" d="M516.36,-1138.33C619.85,-928.43 786.18,-583.08 886.76,-369.3"/>
<polygon fill="#ffdeb8" stroke="#ffdeb8" stroke-width="1.51" points="889.96,-370.7 891.05,-360.17 883.63,-367.73 889.96,-370.7"/>
</g>
<!-- liga&#45;nos&#45;&gt;primera&#45;division -->
<g id="edge28" class="edge">
<title>liga&#45;nos&#45;&gt;primera&#45;division</title>
<path fill="none" stroke="#ff9212" stroke-width="9.15" d="M604.19,-1181.47C779.69,-1043.89 1045.33,-832.11 1223.54,-687.75"/>
<polygon fill="#ff9212" stroke="#ff9212" stroke-width="9.15" points="1228.7,-693.87 1231.43,-681.35 1218.62,-681.43 1228.7,-693.87"/>
</g>
<!-- ligue&#45;1&#45;&gt;premier&#45;liga -->
<g id="edge29" class="edge">
<title>ligue&#45;1&#45;&gt;premier&#45;liga</title>
<path fill="none" stroke="#ffe3c4" stroke-width="0.95" d="M360.07,-817.87C446.53,-818.68 550.15,-818.71 637.88,-817.96"/>
<polygon fill="#ffe3c4" stroke="#ffe3c4" stroke-width="0.95" points="637.99,-821.46 647.95,-817.87 637.92,-814.46 637.99,-821.46"/>
</g>
<!-- ligue&#45;1&#45;&gt;premier&#45;league -->
<g id="edge30" class="edge">
<title>ligue&#45;1&#45;&gt;premier&#45;league</title>
<path fill="none" stroke="#ffdcb4" stroke-width="1.65" d="M360.33,-857.99C590.47,-912.95 986.82,-1003.44 1221.61,-1054.65"/>
<polygon fill="#ffdcb4" stroke="#ffdcb4" stroke-width="1.65" points="1221.11,-1058.13 1231.63,-1056.83 1222.6,-1051.29 1221.11,-1058.13"/>
</g>
<!-- ligue&#45;1&#45;&gt;eredivisie -->
<g id="edge31" class="edge">
<title>ligue&#45;1&#45;&gt;eredivisie</title>
<path fill="none" stroke="#ffdcb4" stroke-width="1.65" d="M360.12,-962.81C486.7,-1065.38 655.67,-1200.12 784,-1300.86"/>
<polygon fill="#ffdcb4" stroke="#ffdcb4" stroke-width="1.65" points="781.98,-1303.72 792.01,-1307.14 786.3,-1298.21 781.98,-1303.72"/>
</g>
<!-- ligue&#45;1&#45;&gt;liga&#45;nos -->
<g id="edge32" class="edge">
<title>ligue&#45;1&#45;&gt;liga&#45;nos</title>
<path fill="none" stroke="#ffcc90" stroke-width="3.33" d="M259.5,-991.75C280.54,-1036.21 303.5,-1083.97 325.42,-1128.86"/>
<polygon fill="#ffcc90" stroke="#ffcc90" stroke-width="3.33" points="322.4,-1130.65 329.93,-1138.1 328.68,-1127.58 322.4,-1130.65"/>
</g>
<!-- ligue&#45;1&#45;&gt;serie&#45;a -->
<g id="edge33" class="edge">
<title>ligue&#45;1&#45;&gt;serie&#45;a</title>
<path fill="none" stroke="#ffc076" stroke-width="4.53" d="M273.95,-631.68C295.68,-587.26 318.66,-539.56 339.94,-494.71"/>
<polygon fill="#ffc076" stroke="#ffc076" stroke-width="4.53" points="343.6,-496.22 344.31,-485.48 336.45,-492.83 343.6,-496.22"/>
</g>
<!-- ligue&#45;1&#45;&gt;1&#45;bundesliga -->
<g id="edge34" class="edge">
<title>ligue&#45;1&#45;&gt;1&#45;bundesliga</title>
<path fill="none" stroke="#ffc17a" stroke-width="4.36" d="M360.37,-675.24C486.92,-575.99 655.74,-441.43 783.98,-337.61"/>
<polygon fill="#ffc17a" stroke="#ffc17a" stroke-width="4.36" points="786.61,-340.39 791.99,-331.13 781.82,-334.46 786.61,-340.39"/>
</g>
<!-- ligue&#45;1&#45;&gt;primera&#45;division -->
<g id="edge35" class="edge">
<title>ligue&#45;1&#45;&gt;primera&#45;division</title>
<path fill="none" stroke="#ffb156" stroke-width="6.01" d="M360.21,-775.68C590.33,-725.6 986.74,-635.17 1221.57,-579.2"/>
<polygon fill="#ffb156" stroke="#ffb156" stroke-width="6.01" points="1223.08,-584.25 1231.59,-576.81 1220.64,-574.02 1223.08,-584.25"/>
</g>
<!-- serie&#45;a&#45;&gt;premier&#45;liga -->
<g id="edge36" class="edge">
<title>serie&#45;a&#45;&gt;premier&#45;liga</title>
<path fill="none" stroke="#ffe2c0" stroke-width="1.12" d="M559.38,-485.28C594.76,-530.19 633.2,-578.45 669.65,-623.73"/>
<polygon fill="#ffe2c0" stroke="#ffe2c0" stroke-width="1.12" points="666.96,-625.96 675.96,-631.56 672.41,-621.57 666.96,-625.96"/>
</g>
<!-- serie&#45;a&#45;&gt;premier&#45;league -->
<g id="edge37" class="edge">
<title>serie&#45;a&#45;&gt;premier&#45;league</title>
<path fill="none" stroke="#ffddb5" stroke-width="1.63" d="M604.11,-455.67C779.74,-598.05 1045.69,-810.14 1223.93,-949.97"/>
<polygon fill="#ffddb5" stroke="#ffddb5" stroke-width="1.63" points="1221.79,-952.74 1231.82,-956.16 1226.11,-947.23 1221.79,-952.74"/>
</g>
<!-- serie&#45;a&#45;&gt;eredivisie -->
<g id="edge38" class="edge">
<title>serie&#45;a&#45;&gt;eredivisie</title>
<path fill="none" stroke="#ffd8ab" stroke-width="2.07" d="M505.08,-485.19C603.73,-695.14 770.03,-1040.55 875.32,-1254.32"/>
<polygon fill="#ffd8ab" stroke="#ffd8ab" stroke-width="2.07" points="872.26,-1256.03 879.81,-1263.45 878.53,-1252.94 872.26,-1256.03"/>
</g>
<!-- serie&#45;a&#45;&gt;liga&#45;nos -->
<g id="edge39" class="edge">
<title>serie&#45;a&#45;&gt;liga&#45;nos</title>
<path fill="none" stroke="#ffce96" stroke-width="3.07" d="M418.67,-485.4C416.78,-666.23 416.75,-943.63 418.57,-1127.97"/>
<polygon fill="#ffce96" stroke="#ffce96" stroke-width="3.07" points="415.07,-1128.09 418.67,-1138.05 422.07,-1128.02 415.07,-1128.09"/>
</g>
<!-- serie&#45;a&#45;&gt;ligue&#45;1 -->
<g id="edge40" class="edge">
<title>serie&#45;a&#45;&gt;ligue&#45;1</title>
<path fill="none" stroke="#ffbe71" stroke-width="4.74" d="M330.03,-485.2C308.3,-529.62 285.32,-577.32 264.04,-622.17"/>
<polygon fill="#ffbe71" stroke="#ffbe71" stroke-width="4.74" points="260.2,-620.58 259.67,-631.39 267.7,-624.14 260.2,-620.58"/>
</g>
<!-- serie&#45;a&#45;&gt;1&#45;bundesliga -->
<g id="edge41" class="edge">
<title>serie&#45;a&#45;&gt;1&#45;bundesliga</title>
<path fill="none" stroke="#ffd19d" stroke-width="2.75" d="M604.14,-270.54C661.11,-258.02 724.23,-243.65 781.88,-230.08"/>
<polygon fill="#ffd19d" stroke="#ffd19d" stroke-width="2.75" points="782.9,-233.43 791.83,-227.73 781.29,-226.62 782.9,-233.43"/>
</g>
<!-- serie&#45;a&#45;&gt;primera&#45;division -->
<g id="edge42" class="edge">
<title>serie&#45;a&#45;&gt;primera&#45;division</title>
<path fill="none" stroke="#ff8900" stroke-width="10" d="M604.26,-351.78C779.1,-393.55 1043.37,-453.89 1221.53,-492.75"/>
<polygon fill="#ff8900" stroke="#ff8900" stroke-width="10" points="1219.91,-501.35 1231.54,-494.93 1223.63,-484.25 1219.91,-501.35"/>
</g>
<!-- 1&#45;bundesliga&#45;&gt;premier&#45;liga -->
<g id="edge43" class="edge">
<title>1&#45;bundesliga&#45;&gt;premier&#45;liga</title>
<path fill="none" stroke="#ffdcb4" stroke-width="1.65" d="M924.76,-360.08C905.3,-441.98 883.15,-538.91 864.93,-621.94"/>
<polygon fill="#ffdcb4" stroke="#ffdcb4" stroke-width="1.65" points="861.5,-621.22 862.78,-631.74 868.34,-622.72 861.5,-621.22"/>
</g>
<!-- 1&#45;bundesliga&#45;&gt;premier&#45;league -->
<g id="edge44" class="edge">
<title>1&#45;bundesliga&#45;&gt;premier&#45;league</title>
<path fill="none" stroke="#ffdbb1" stroke-width="1.82" d="M1052.81,-360.02C1126.59,-517.02 1235.85,-744.02 1314.47,-903.68"/>
<polygon fill="#ffdbb1" stroke="#ffdbb1" stroke-width="1.82" points="1311.33,-905.24 1318.89,-912.67 1317.61,-902.15 1311.33,-905.24"/>
</g>
<!-- 1&#45;bundesliga&#45;&gt;eredivisie -->
<g id="edge45" class="edge">
<title>1&#45;bundesliga&#45;&gt;eredivisie</title>
<path fill="none" stroke="#ffbf74" stroke-width="4.62" d="M967.3,-360.02C964.86,-596.79 964.82,-1011.05 967.2,-1252.95"/>
<polygon fill="#ffbf74" stroke="#ffbf74" stroke-width="4.62" points="963.16,-1253.31 967.3,-1263.27 971.25,-1253.23 963.16,-1253.31"/>
</g>
<!-- 1&#45;bundesliga&#45;&gt;liga&#45;nos -->
<g id="edge46" class="edge">
<title>1&#45;bundesliga&#45;&gt;liga&#45;nos</title>
<path fill="none" stroke="#ffdeb8" stroke-width="1.51" d="M879.81,-360.05C776.32,-569.96 609.99,-915.3 509.41,-1129.08"/>
<polygon fill="#ffdeb8" stroke="#ffdeb8" stroke-width="1.51" points="506.21,-1127.68 505.12,-1138.21 512.54,-1130.65 506.21,-1127.68"/>
</g>
<!-- 1&#45;bundesliga&#45;&gt;ligue&#45;1 -->
<g id="edge47" class="edge">
<title>1&#45;bundesliga&#45;&gt;ligue&#45;1</title>
<path fill="none" stroke="#ffcd93" stroke-width="3.19" d="M791.82,-316.51C665.27,-415.76 496.46,-550.32 368.21,-654.14"/>
<polygon fill="#ffcd93" stroke="#ffcd93" stroke-width="3.19" points="365.78,-651.61 360.21,-660.62 370.18,-657.05 365.78,-651.61"/>
</g>
<!-- 1&#45;bundesliga&#45;&gt;serie&#45;a -->
<g id="edge48" class="edge">
<title>1&#45;bundesliga&#45;&gt;serie&#45;a</title>
<path fill="none" stroke="#ffcd94" stroke-width="3.16" d="M792.03,-214.58C735.06,-227.11 671.94,-241.48 614.29,-255.05"/>
<polygon fill="#ffcd94" stroke="#ffcd94" stroke-width="3.16" points="613.28,-251.69 604.35,-257.4 614.88,-258.51 613.28,-251.69"/>
</g>
<!-- 1&#45;bundesliga&#45;&gt;primera&#45;division -->
<g id="edge49" class="edge">
<title>1&#45;bundesliga&#45;&gt;primera&#45;division</title>
<path fill="none" stroke="#ffbd6f" stroke-width="4.84" d="M1152.25,-332.12C1175.84,-351.07 1200.07,-370.39 1223.79,-389.17"/>
<polygon fill="#ffbd6f" stroke="#ffbd6f" stroke-width="4.84" points="1221.35,-392.64 1231.82,-395.52 1226.6,-385.99 1221.35,-392.64"/>
</g>
<!-- primera&#45;division&#45;&gt;premier&#45;liga -->
<g id="edge50" class="edge">
<title>primera&#45;division&#45;&gt;premier&#45;liga</title>
<path fill="none" stroke="#ffdbb2" stroke-width="1.78" d="M1231.56,-610.45C1163.56,-642.53 1086.03,-679.82 1017.23,-713.54"/>
<polygon fill="#ffdbb2" stroke="#ffdbb2" stroke-width="1.78" points="1015.46,-710.51 1008.02,-718.06 1018.54,-716.79 1015.46,-710.51"/>
</g>
<!-- primera&#45;division&#45;&gt;premier&#45;league -->
<g id="edge51" class="edge">
<title>primera&#45;division&#45;&gt;premier&#45;league</title>
<path fill="none" stroke="#ffd39f" stroke-width="2.63" d="M1405.48,-710.84C1404.97,-772 1404.95,-840.51 1405.4,-902.45"/>
<polygon fill="#ffd39f" stroke="#ffd39f" stroke-width="2.63" points="1401.9,-902.75 1405.48,-912.73 1408.9,-902.7 1401.9,-902.75"/>
</g>
<!-- primera&#45;division&#45;&gt;eredivisie -->
<g id="edge52" class="edge">
<title>primera&#45;division&#45;&gt;eredivisie</title>
<path fill="none" stroke="#ffd9ae" stroke-width="1.97" d="M1318.94,-710.75C1241.63,-867.56 1132.5,-1094.12 1057.4,-1253.72"/>
<polygon fill="#ffd9ae" stroke="#ffd9ae" stroke-width="1.97" points="1054.05,-1252.63 1052.96,-1263.17 1060.38,-1255.61 1054.05,-1252.63"/>
</g>
<!-- primera&#45;division&#45;&gt;liga&#45;nos -->
<g id="edge53" class="edge">
<title>primera&#45;division&#45;&gt;liga&#45;nos</title>
<path fill="none" stroke="#ff9922" stroke-width="8.42" d="M1231.62,-667.51C1056.12,-805.09 790.47,-1016.87 612.27,-1161.23"/>
<polygon fill="#ff9922" stroke="#ff9922" stroke-width="8.42" points="607.51,-1155.6 604.38,-1167.62 616.78,-1167.05 607.51,-1155.6"/>
</g>
<!-- primera&#45;division&#45;&gt;ligue&#45;1 -->
<g id="edge54" class="edge">
<title>primera&#45;division&#45;&gt;ligue&#45;1</title>
<path fill="none" stroke="#ffc37e" stroke-width="4.18" d="M1231.61,-566.67C1001.5,-616.75 605.09,-707.18 370.26,-763.15"/>
<polygon fill="#ffc37e" stroke="#ffc37e" stroke-width="4.18" points="369.12,-759.65 360.24,-765.54 370.82,-766.78 369.12,-759.65"/>
</g>
<!-- primera&#45;division&#45;&gt;serie&#45;a -->
<g id="edge55" class="edge">
<title>primera&#45;division&#45;&gt;serie&#45;a</title>
<path fill="none" stroke="#ffa53d" stroke-width="7.18" d="M1231.55,-483.94C1056.71,-442.17 792.44,-381.83 614.28,-342.98"/>
<polygon fill="#ffa53d" stroke="#ffa53d" stroke-width="7.18" points="615.37,-336.79 604.27,-340.8 612.7,-349.06 615.37,-336.79"/>
</g>
<!-- primera&#45;division&#45;&gt;1&#45;bundesliga -->
<g id="edge56" class="edge">
<title>primera&#45;division&#45;&gt;1&#45;bundesliga</title>
<path fill="none" stroke="#ffc37d" stroke-width="4.21" d="M1231.77,-378.47C1208.18,-359.52 1183.95,-340.2 1160.23,-321.42"/>
<polygon fill="#ffc37d" stroke="#ffc37d" stroke-width="4.21" points="1162.33,-318.39 1152.2,-315.08 1157.76,-324.17 1162.33,-318.39"/>
</g>
<!-- premier&#45;liga -->
<g id="node1" class="node">
<title>premier&#45;liga</title>
<polygon fill="white" stroke="black" points="1008,-991.75 648,-991.75 648,-631.75 1008,-631.75 1008,-991.75"/>
<text text-anchor="middle" x="828" y="-805.55" font-family="Times,serif" font-size="24.00">premier&#45;liga</text>
</g>
<!-- premier&#45;league -->
<g id="node2" class="node">
<title>premier&#45;league</title>
<polygon fill="white" stroke="black" points="1591.83,-1272.91 1231.83,-1272.91 1231.83,-912.91 1591.83,-912.91 1591.83,-1272.91"/>
<text text-anchor="middle" x="1411.83" y="-1086.71" font-family="Times,serif" font-size="24.00">premier&#45;league</text>
</g>
<!-- eredivisie -->
<g id="node3" class="node">
<title>eredivisie</title>
<polygon fill="white" stroke="black" points="1152.19,-1623.51 792.19,-1623.51 792.19,-1263.51 1152.19,-1263.51 1152.19,-1623.51"/>
<text text-anchor="middle" x="972.19" y="-1437.31" font-family="Times,serif" font-size="24.00">eredivisie</text>
</g>
<!-- liga&#45;nos -->
<g id="node4" class="node">
<title>liga&#45;nos</title>
<polygon fill="white" stroke="black" points="603.98,-1498.38 243.98,-1498.38 243.98,-1138.38 603.98,-1138.38 603.98,-1498.38"/>
<text text-anchor="middle" x="423.98" y="-1312.18" font-family="Times,serif" font-size="24.00">liga&#45;nos</text>
</g>
<!-- ligue&#45;1 -->
<g id="node5" class="node">
<title>ligue&#45;1</title>
<polygon fill="white" stroke="black" points="360,-991.75 0,-991.75 0,-631.75 360,-631.75 360,-991.75"/>
<text text-anchor="middle" x="180" y="-805.55" font-family="Times,serif" font-size="24.00">ligue&#45;1</text>
</g>
<!-- serie&#45;a -->
<g id="node6" class="node">
<title>serie&#45;a</title>
<polygon fill="white" stroke="black" points="603.98,-485.13 243.98,-485.13 243.98,-125.13 603.98,-125.13 603.98,-485.13"/>
<text text-anchor="middle" x="423.98" y="-298.93" font-family="Times,serif" font-size="24.00">serie&#45;a</text>
</g>
<!-- 1&#45;bundesliga -->
<g id="node7" class="node">
<title>1&#45;bundesliga</title>
<polygon fill="white" stroke="black" points="1152.19,-360 792.19,-360 792.19,0 1152.19,0 1152.19,-360"/>
<text text-anchor="middle" x="972.19" y="-173.8" font-family="Times,serif" font-size="24.00">1&#45;bundesliga</text>
</g>
<!-- primera&#45;division -->
<g id="node8" class="node">
<title>primera&#45;division</title>
<polygon fill="white" stroke="black" points="1591.83,-710.6 1231.83,-710.6 1231.83,-350.6 1591.83,-350.6 1591.83,-710.6"/>
<text text-anchor="middle" x="1411.83" y="-524.4" font-family="Times,serif" font-size="24.00">primera&#45;division</text>
</g>
</g>
</svg>
