<?xml version="1.0" encoding="UTF-8" standalone="no"?>
<!DOCTYPE svg PUBLIC "-//W3C//DTD SVG 1.1//EN"
 "http://www.w3.org/Graphics/SVG/1.1/DTD/svg11.dtd">
<!-- Generated by graphviz version 2.50.0 (0)
 -->
<!-- Pages: 1 -->
<svg width="1444pt" height="1952pt"
 viewBox="0.00 0.00 1444.00 1952.00" xmlns="http://www.w3.org/2000/svg" xmlns:xlink="http://www.w3.org/1999/xlink">
<g id="graph0" class="graph" transform="scale(1 1) rotate(0) translate(4 1948)">
<polygon fill="white" stroke="transparent" points="-4,4 -4,-1948 1440,-1948 1440,4 -4,4"/>
<!-- championship.csv&#45;&gt;eredivisie.csv -->
<g id="edge1" class="edge">
<title>championship.csv&#45;&gt;eredivisie.csv</title>
<path fill="none" stroke="#fcbba1" stroke-width="0.14" d="M186.39,-1662.42C225.85,-1521.8 283.9,-1304.22 320.66,-1159.24"/>
<polygon fill="#fcbba1" stroke="#fcbba1" stroke-width="0.14" points="324.1,-1159.91 323.16,-1149.36 317.31,-1158.19 324.1,-1159.91"/>
</g>
<!-- championship.csv&#45;&gt;liga&#45;nos.csv -->
<g id="edge2" class="edge">
<title>championship.csv&#45;&gt;liga&#45;nos.csv</title>
<path fill="none" stroke="#fcbba1" stroke-width="0.29" d="M155.66,-1656.65C167.87,-1451.9 185.45,-1077.63 192.77,-867.17"/>
<polygon fill="#fcbba1" stroke="#fcbba1" stroke-width="0.29" points="196.27,-867.08 193.12,-856.96 189.28,-866.83 196.27,-867.08"/>
</g>
<!-- championship.csv&#45;&gt;ligue&#45;1.csv -->
<g id="edge3" class="edge">
<title>championship.csv&#45;&gt;ligue&#45;1.csv</title>
<path fill="none" stroke="#fcbba1" stroke-width="0.71" d="M241.14,-1693.42C339.44,-1585.12 491.02,-1418.13 591.68,-1307.22"/>
<polygon fill="#fcbba1" stroke="#fcbba1" stroke-width="0.71" points="594.41,-1309.42 598.54,-1299.66 589.23,-1304.71 594.41,-1309.42"/>
</g>
<!-- championship.csv&#45;&gt;premier&#45;league.csv -->
<g id="edge4" class="edge">
<title>championship.csv&#45;&gt;premier&#45;league.csv</title>
<path fill="none" stroke="#67000d" stroke-width="9.71" d="M264.39,-1720.18C432.58,-1603.17 736.44,-1386.03 905.94,-1261.76"/>
<polygon fill="#67000d" stroke="#67000d" stroke-width="9.71" points="911.13,-1268.5 914.16,-1255.73 901.07,-1254.79 911.13,-1268.5"/>
</g>
<!-- eredivisie.csv&#45;&gt;championship.csv -->
<g id="edge5" class="edge">
<title>eredivisie.csv&#45;&gt;championship.csv</title>
<path fill="none" stroke="#fcbba1" stroke-width="0.29" d="M312.92,-1146.75C273.45,-1287.37 215.41,-1504.95 178.65,-1649.93"/>
<polygon fill="#fcbba1" stroke="#fcbba1" stroke-width="0.29" points="175.21,-1649.26 176.15,-1659.81 181.99,-1650.97 175.21,-1649.26"/>
</g>
<!-- eredivisie.csv&#45;&gt;liga&#45;nos.csv -->
<g id="edge6" class="edge">
<title>eredivisie.csv&#45;&gt;liga&#45;nos.csv</title>
<path fill="none" stroke="#fcbba1" stroke-width="0.71" d="M292.46,-878.9C286.49,-867.72 280.39,-856.41 274.29,-845.21"/>
<polygon fill="#fcbba1" stroke="#fcbba1" stroke-width="0.71" points="277.27,-843.37 269.41,-836.27 271.13,-846.72 277.27,-843.37"/>
</g>
<!-- eredivisie.csv&#45;&gt;ligue&#45;1.csv -->
<g id="edge9" class="edge">
<title>eredivisie.csv&#45;&gt;ligue&#45;1.csv</title>
<path fill="none" stroke="#fb6a4a" stroke-width="3.86" d="M478.73,-1083.19C503.97,-1097.11 530.7,-1111.59 556.43,-1125.29"/>
<polygon fill="#fb6a4a" stroke="#fb6a4a" stroke-width="3.86" points="555.02,-1128.5 565.49,-1130.1 558.31,-1122.32 555.02,-1128.5"/>
</g>
<!-- eredivisie.csv&#45;&gt;premier&#45;league.csv -->
<g id="edge12" class="edge">
<title>eredivisie.csv&#45;&gt;premier&#45;league.csv</title>
<path fill="none" stroke="#ef3b2c" stroke-width="4.57" d="M494.21,-1047.53C605.87,-1075.45 762.42,-1112.48 877.22,-1138.17"/>
<polygon fill="#ef3b2c" stroke="#ef3b2c" stroke-width="4.57" points="876.52,-1142.11 887.15,-1140.39 878.26,-1134.31 876.52,-1142.11"/>
</g>
<!-- eredivisie.csv&#45;&gt;primera&#45;division.csv -->
<g id="edge7" class="edge">
<title>eredivisie.csv&#45;&gt;primera&#45;division.csv</title>
<path fill="none" stroke="#fc9272" stroke-width="2.57" d="M425.97,-883.04C511.35,-723.42 653.6,-449.08 737.07,-283.17"/>
<polygon fill="#fc9272" stroke="#fc9272" stroke-width="2.57" points="740.37,-284.39 741.74,-273.88 734.12,-281.25 740.37,-284.39"/>
</g>
<!-- eredivisie.csv&#45;&gt;premier&#45;liga.csv -->
<g id="edge8" class="edge">
<title>eredivisie.csv&#45;&gt;premier&#45;liga.csv</title>
<path fill="none" stroke="#fc9272" stroke-width="1.43" d="M495.41,-975.44C669.99,-929.8 966.74,-848.14 1144.51,-796.86"/>
<polygon fill="#fc9272" stroke="#fc9272" stroke-width="1.43" points="1145.56,-800.2 1154.2,-794.06 1143.62,-793.47 1145.56,-800.2"/>
</g>
<!-- eredivisie.csv&#45;&gt;serie&#45;a.csv -->
<g id="edge10" class="edge">
<title>eredivisie.csv&#45;&gt;serie&#45;a.csv</title>
<path fill="none" stroke="#fb6a4a" stroke-width="3.43" d="M469.99,-921.23C625.03,-797.77 899.7,-573.29 1055.41,-442.83"/>
<polygon fill="#fb6a4a" stroke="#fb6a4a" stroke-width="3.43" points="1057.78,-445.41 1063.19,-436.3 1053.28,-440.04 1057.78,-445.41"/>
</g>
<!-- eredivisie.csv&#45;&gt;1&#45;bundesliga.csv -->
<g id="edge11" class="edge">
<title>eredivisie.csv&#45;&gt;1&#45;bundesliga.csv</title>
<path fill="none" stroke="#67000d" stroke-width="8.43" d="M368.17,-865.31C376.41,-739.57 386.02,-557.32 391.23,-428.44"/>
<polygon fill="#67000d" stroke="#67000d" stroke-width="8.43" points="398.61,-428.38 391.64,-418.09 383.87,-427.79 398.61,-428.38"/>
</g>
<!-- liga&#45;nos.csv&#45;&gt;championship.csv -->
<g id="edge13" class="edge">
<title>liga&#45;nos.csv&#45;&gt;championship.csv</title>
<path fill="none" stroke="#fcbba1" stroke-width="0.14" d="M183.62,-856.49C171.41,-1061.24 153.84,-1435.51 146.52,-1645.97"/>
<polygon fill="#fcbba1" stroke="#fcbba1" stroke-width="0.14" points="143.01,-1646.06 146.16,-1656.18 150.01,-1646.3 143.01,-1646.06"/>
</g>
<!-- liga&#45;nos.csv&#45;&gt;eredivisie.csv -->
<g id="edge14" class="edge">
<title>liga&#45;nos.csv&#45;&gt;eredivisie.csv</title>
<path fill="none" stroke="#fcbba1" stroke-width="1.29" d="M257.79,-842.89C263.75,-854.07 269.85,-865.38 275.95,-876.58"/>
<polygon fill="#fcbba1" stroke="#fcbba1" stroke-width="1.29" points="272.97,-878.42 280.83,-885.52 279.11,-875.07 272.97,-878.42"/>
</g>
<!-- liga&#45;nos.csv&#45;&gt;ligue&#45;1.csv -->
<g id="edge17" class="edge">
<title>liga&#45;nos.csv&#45;&gt;ligue&#45;1.csv</title>
<path fill="none" stroke="#fb6a4a" stroke-width="3.86" d="M295.2,-816.67C377.49,-897.69 494.11,-1009.65 580.27,-1090.35"/>
<polygon fill="#fb6a4a" stroke="#fb6a4a" stroke-width="3.86" points="578.03,-1093.05 587.72,-1097.32 582.81,-1087.94 578.03,-1093.05"/>
</g>
<!-- liga&#45;nos.csv&#45;&gt;premier&#45;league.csv -->
<g id="edge20" class="edge">
<title>liga&#45;nos.csv&#45;&gt;premier&#45;league.csv</title>
<path fill="none" stroke="#fb6a4a" stroke-width="3.57" d="M319.3,-786.41C472.41,-872.62 731.81,-1014.33 890.9,-1098.7"/>
<polygon fill="#fb6a4a" stroke="#fb6a4a" stroke-width="3.57" points="889.33,-1101.83 899.81,-1103.42 892.61,-1095.65 889.33,-1101.83"/>
</g>
<!-- liga&#45;nos.csv&#45;&gt;primera&#45;division.csv -->
<g id="edge15" class="edge">
<title>liga&#45;nos.csv&#45;&gt;primera&#45;division.csv</title>
<path fill="none" stroke="#cb181d" stroke-width="6.71" d="M304.02,-618.2C414.35,-517.65 584.04,-358.97 694.49,-253.09"/>
<polygon fill="#cb181d" stroke="#cb181d" stroke-width="6.71" points="698.86,-257.04 702.01,-245.88 690.72,-248.56 698.86,-257.04"/>
</g>
<!-- liga&#45;nos.csv&#45;&gt;premier&#45;liga.csv -->
<g id="edge16" class="edge">
<title>liga&#45;nos.csv&#45;&gt;premier&#45;liga.csv</title>
<path fill="none" stroke="#fcbba1" d="M338.88,-722.62C545.48,-732.45 924.78,-745.68 1137.21,-750.52"/>
<polygon fill="#fcbba1" stroke="#fcbba1" points="1137.44,-754.03 1147.52,-750.75 1137.6,-747.03 1137.44,-754.03"/>
</g>
<!-- liga&#45;nos.csv&#45;&gt;serie&#45;a.csv -->
<g id="edge18" class="edge">
<title>liga&#45;nos.csv&#45;&gt;serie&#45;a.csv</title>
<path fill="none" stroke="#fc9272" stroke-width="1.71" d="M331.58,-666.14C515.76,-598.78 842.33,-474.61 1029.41,-400.85"/>
<polygon fill="#fc9272" stroke="#fc9272" stroke-width="1.71" points="1030.75,-404.09 1038.76,-397.16 1028.18,-397.57 1030.75,-404.09"/>
</g>
<!-- liga&#45;nos.csv&#45;&gt;1&#45;bundesliga.csv -->
<g id="edge19" class="edge">
<title>liga&#45;nos.csv&#45;&gt;1&#45;bundesliga.csv</title>
<path fill="none" stroke="#fcbba1" stroke-width="1.14" d="M260.11,-584.35C284.58,-531.84 312.19,-470.9 335.96,-416.98"/>
<polygon fill="#fcbba1" stroke="#fcbba1" stroke-width="1.14" points="339.22,-418.26 340.04,-407.7 332.81,-415.45 339.22,-418.26"/>
</g>
<!-- ligue&#45;1.csv&#45;&gt;eredivisie.csv -->
<g id="edge35" class="edge">
<title>ligue&#45;1.csv&#45;&gt;eredivisie.csv</title>
<path fill="none" stroke="#fb6a4a" stroke-width="3.43" d="M571.83,-1118.63C546.59,-1104.72 519.87,-1090.24 494.13,-1076.53"/>
<polygon fill="#fb6a4a" stroke="#fb6a4a" stroke-width="3.43" points="495.54,-1073.32 485.07,-1071.72 492.26,-1079.5 495.54,-1073.32"/>
</g>
<!-- ligue&#45;1.csv&#45;&gt;liga&#45;nos.csv -->
<g id="edge36" class="edge">
<title>ligue&#45;1.csv&#45;&gt;liga&#45;nos.csv</title>
<path fill="none" stroke="#fb6a4a" stroke-width="3.14" d="M595.34,-1089.12C513.05,-1008.1 396.43,-896.15 310.27,-815.44"/>
<polygon fill="#fb6a4a" stroke="#fb6a4a" stroke-width="3.14" points="312.51,-812.75 302.82,-808.47 307.73,-817.86 312.51,-812.75"/>
</g>
<!-- ligue&#45;1.csv&#45;&gt;premier&#45;league.csv -->
<g id="edge41" class="edge">
<title>ligue&#45;1.csv&#45;&gt;premier&#45;league.csv</title>
<path fill="none" stroke="#a50f15" stroke-width="7" d="M839.65,-1188.87C851.56,-1188.04 863.62,-1187.15 875.59,-1186.23"/>
<polygon fill="#a50f15" stroke="#a50f15" stroke-width="7" points="876.12,-1192.33 885.61,-1185.44 875.16,-1180.12 876.12,-1192.33"/>
</g>
<!-- ligue&#45;1.csv&#45;&gt;primera&#45;division.csv -->
<g id="edge37" class="edge">
<title>ligue&#45;1.csv&#45;&gt;primera&#45;division.csv</title>
<path fill="none" stroke="#cb181d" stroke-width="6.43" d="M714.99,-1050.24C737.85,-853.46 774.35,-500.16 792.79,-297.56"/>
<polygon fill="#cb181d" stroke="#cb181d" stroke-width="6.43" points="798.41,-297.9 793.71,-287.43 787.2,-296.88 798.41,-297.9"/>
</g>
<!-- ligue&#45;1.csv&#45;&gt;premier&#45;liga.csv -->
<g id="edge38" class="edge">
<title>ligue&#45;1.csv&#45;&gt;premier&#45;liga.csv</title>
<path fill="none" stroke="#fcbba1" d="M814.38,-1111.58C917.96,-1036.91 1067.39,-926.23 1171.39,-847.2"/>
<polygon fill="#fcbba1" stroke="#fcbba1" points="1173.59,-849.93 1179.43,-841.09 1169.35,-844.36 1173.59,-849.93"/>
</g>
<!-- ligue&#45;1.csv&#45;&gt;serie&#45;a.csv -->
<g id="edge39" class="edge">
<title>ligue&#45;1.csv&#45;&gt;serie&#45;a.csv</title>
<path fill="none" stroke="#cb181d" stroke-width="6" d="M770.01,-1069.7C860.48,-912.74 1011.77,-642.3 1100.59,-478.85"/>
<polygon fill="#cb181d" stroke="#cb181d" stroke-width="6" points="1105.41,-480.99 1105.56,-469.69 1096.18,-475.98 1105.41,-480.99"/>
</g>
<!-- ligue&#45;1.csv&#45;&gt;1&#45;bundesliga.csv -->
<g id="edge40" class="edge">
<title>ligue&#45;1.csv&#45;&gt;1&#45;bundesliga.csv</title>
<path fill="none" stroke="#cb181d" stroke-width="6.14" d="M655.15,-1054.28C601.34,-882.95 506.12,-592.79 446.6,-418.69"/>
<polygon fill="#cb181d" stroke="#cb181d" stroke-width="6.14" points="451.68,-416.92 443.35,-409.2 441.51,-420.4 451.68,-416.92"/>
</g>
<!-- premier&#45;league.csv&#45;&gt;championship.csv -->
<g id="edge56" class="edge">
<title>premier&#45;league.csv&#45;&gt;championship.csv</title>
<path fill="none" stroke="#67000d" stroke-width="9" d="M908.41,-1248.14C740.22,-1365.15 436.36,-1582.3 266.85,-1706.57"/>
<polygon fill="#67000d" stroke="#67000d" stroke-width="9" points="262.04,-1700.33 258.64,-1712.6 271.36,-1713.03 262.04,-1700.33"/>
</g>
<!-- premier&#45;league.csv&#45;&gt;eredivisie.csv -->
<g id="edge57" class="edge">
<title>premier&#45;league.csv&#45;&gt;eredivisie.csv</title>
<path fill="none" stroke="#fb6a4a" stroke-width="4" d="M889.55,-1129.44C777.89,-1101.53 621.34,-1064.49 506.54,-1038.8"/>
<polygon fill="#fb6a4a" stroke="#fb6a4a" stroke-width="4" points="507.13,-1035.35 496.61,-1036.59 505.6,-1042.18 507.13,-1035.35"/>
</g>
<!-- premier&#45;league.csv&#45;&gt;liga&#45;nos.csv -->
<g id="edge58" class="edge">
<title>premier&#45;league.csv&#45;&gt;liga&#45;nos.csv</title>
<path fill="none" stroke="#fc9272" stroke-width="2.43" d="M904.43,-1094.54C751.32,-1008.33 491.92,-866.62 332.84,-782.25"/>
<polygon fill="#fc9272" stroke="#fc9272" stroke-width="2.43" points="334.4,-779.11 323.93,-777.52 331.12,-785.3 334.4,-779.11"/>
</g>
<!-- premier&#45;league.csv&#45;&gt;ligue&#45;1.csv -->
<g id="edge61" class="edge">
<title>premier&#45;league.csv&#45;&gt;ligue&#45;1.csv</title>
<path fill="none" stroke="#ef3b2c" stroke-width="5.43" d="M884.4,-1172.11C872.5,-1172.94 860.44,-1173.82 848.47,-1174.75"/>
<polygon fill="#ef3b2c" stroke="#ef3b2c" stroke-width="5.43" points="848.04,-1170.02 838.44,-1175.54 848.78,-1179.49 848.04,-1170.02"/>
</g>
<!-- premier&#45;league.csv&#45;&gt;primera&#45;division.csv -->
<g id="edge59" class="edge">
<title>premier&#45;league.csv&#45;&gt;primera&#45;division.csv</title>
<path fill="none" stroke="#cb181d" stroke-width="5.86" d="M1002.47,-1026.46C962.72,-833.57 887.29,-489.78 841.58,-292.93"/>
<polygon fill="#cb181d" stroke="#cb181d" stroke-width="5.86" points="846.54,-291.67 839.29,-283.09 836.56,-293.99 846.54,-291.67"/>
</g>
<!-- premier&#45;league.csv&#45;&gt;premier&#45;liga.csv -->
<g id="edge60" class="edge">
<title>premier&#45;league.csv&#45;&gt;premier&#45;liga.csv</title>
<path fill="none" stroke="#fcbba1" stroke-width="1.14" d="M1110.7,-1049.63C1143.9,-998.3 1182.03,-937.96 1214.71,-885.01"/>
<polygon fill="#fcbba1" stroke="#fcbba1" stroke-width="1.14" points="1217.85,-886.58 1220.12,-876.23 1211.89,-882.91 1217.85,-886.58"/>
</g>
<!-- premier&#45;league.csv&#45;&gt;serie&#45;a.csv -->
<g id="edge62" class="edge">
<title>premier&#45;league.csv&#45;&gt;serie&#45;a.csv</title>
<path fill="none" stroke="#cb181d" stroke-width="5.86" d="M1058.37,-1026.86C1085.99,-878.71 1126.17,-646.61 1150.61,-494.25"/>
<polygon fill="#cb181d" stroke="#cb181d" stroke-width="5.86" points="1155.68,-495.02 1152.2,-484.33 1145.56,-493.4 1155.68,-495.02"/>
</g>
<!-- premier&#45;league.csv&#45;&gt;1&#45;bundesliga.csv -->
<g id="edge63" class="edge">
<title>premier&#45;league.csv&#45;&gt;1&#45;bundesliga.csv</title>
<path fill="none" stroke="#a50f15" stroke-width="7" d="M949.16,-1047.97C831.65,-877.93 612.09,-568.67 487.08,-397.02"/>
<polygon fill="#a50f15" stroke="#a50f15" stroke-width="7" points="491.85,-393.17 481.01,-388.7 481.95,-400.39 491.85,-393.17"/>
</g>
<!-- primera&#45;division.csv&#45;&gt;eredivisie.csv -->
<g id="edge21" class="edge">
<title>primera&#45;division.csv&#45;&gt;eredivisie.csv</title>
<path fill="none" stroke="#fc9272" stroke-width="2.71" d="M732.88,-269.41C647.5,-429.02 505.25,-703.36 421.78,-869.27"/>
<polygon fill="#fc9272" stroke="#fc9272" stroke-width="2.71" points="418.48,-868.06 417.11,-878.56 424.73,-871.2 418.48,-868.06"/>
</g>
<!-- primera&#45;division.csv&#45;&gt;liga&#45;nos.csv -->
<g id="edge22" class="edge">
<title>primera&#45;division.csv&#45;&gt;liga&#45;nos.csv</title>
<path fill="none" stroke="#a50f15" stroke-width="7.57" d="M694.81,-238.22C584.48,-338.77 414.79,-497.45 304.34,-603.32"/>
<polygon fill="#a50f15" stroke="#a50f15" stroke-width="7.57" points="299.45,-598.83 296.82,-610.54 308.62,-608.39 299.45,-598.83"/>
</g>
<!-- primera&#45;division.csv&#45;&gt;ligue&#45;1.csv -->
<g id="edge24" class="edge">
<title>primera&#45;division.csv&#45;&gt;ligue&#45;1.csv</title>
<path fill="none" stroke="#ef3b2c" stroke-width="4.57" d="M784.16,-286.21C761.3,-482.98 724.8,-836.29 706.36,-1038.89"/>
<polygon fill="#ef3b2c" stroke="#ef3b2c" stroke-width="4.57" points="702.36,-1038.7 705.44,-1049.02 710.33,-1039.42 702.36,-1038.7"/>
</g>
<!-- primera&#45;division.csv&#45;&gt;premier&#45;league.csv -->
<g id="edge27" class="edge">
<title>primera&#45;division.csv&#45;&gt;premier&#45;league.csv</title>
<path fill="none" stroke="#cb181d" stroke-width="6.71" d="M829.87,-285.15C869.62,-478.03 945.05,-821.82 990.77,-1018.67"/>
<polygon fill="#cb181d" stroke="#cb181d" stroke-width="6.71" points="985.07,-1020.11 993.05,-1028.52 996.51,-1017.44 985.07,-1020.11"/>
</g>
<!-- primera&#45;division.csv&#45;&gt;premier&#45;liga.csv -->
<g id="edge23" class="edge">
<title>primera&#45;division.csv&#45;&gt;premier&#45;liga.csv</title>
<path fill="none" stroke="#fcbba1" stroke-width="0.57" d="M889.9,-259.39C974,-366.91 1101.87,-526.14 1190.72,-634.02"/>
<polygon fill="#fcbba1" stroke="#fcbba1" stroke-width="0.57" points="1188.26,-636.54 1197.32,-642.03 1193.66,-632.08 1188.26,-636.54"/>
</g>
<!-- primera&#45;division.csv&#45;&gt;serie&#45;a.csv -->
<g id="edge25" class="edge">
<title>primera&#45;division.csv&#45;&gt;serie&#45;a.csv</title>
<path fill="none" stroke="#ef3b2c" stroke-width="4.29" d="M927.52,-217.48C961.2,-236.01 997.9,-255.79 1032.37,-273.99"/>
<polygon fill="#ef3b2c" stroke="#ef3b2c" stroke-width="4.29" points="1030.96,-277.49 1041.55,-278.83 1034.46,-270.85 1030.96,-277.49"/>
</g>
<!-- primera&#45;division.csv&#45;&gt;1&#45;bundesliga.csv -->
<g id="edge26" class="edge">
<title>primera&#45;division.csv&#45;&gt;1&#45;bundesliga.csv</title>
<path fill="none" stroke="#fc9272" stroke-width="2.71" d="M664.68,-181.03C624.06,-193.51 579.57,-207.63 538.59,-221.04"/>
<polygon fill="#fc9272" stroke="#fc9272" stroke-width="2.71" points="537.5,-217.72 529.09,-224.16 539.68,-224.37 537.5,-217.72"/>
</g>
<!-- premier&#45;liga.csv&#45;&gt;eredivisie.csv -->
<g id="edge28" class="edge">
<title>premier&#45;liga.csv&#45;&gt;eredivisie.csv</title>
<path fill="none" stroke="#fcbba1" stroke-width="1.14" d="M1151.51,-784.5C976.94,-830.14 680.19,-911.8 502.42,-963.08"/>
<polygon fill="#fcbba1" stroke="#fcbba1" stroke-width="1.14" points="501.37,-959.74 492.73,-965.88 503.31,-966.46 501.37,-959.74"/>
</g>
<!-- premier&#45;liga.csv&#45;&gt;liga&#45;nos.csv -->
<g id="edge29" class="edge">
<title>premier&#45;liga.csv&#45;&gt;liga&#45;nos.csv</title>
<path fill="none" stroke="#fcbba1" stroke-width="0.71" d="M1148.02,-741.28C941.43,-731.46 562.13,-718.22 349.69,-713.39"/>
<polygon fill="#fcbba1" stroke="#fcbba1" stroke-width="0.71" points="349.46,-709.88 339.39,-713.15 349.31,-716.88 349.46,-709.88"/>
</g>
<!-- premier&#45;liga.csv&#45;&gt;ligue&#45;1.csv -->
<g id="edge31" class="edge">
<title>premier&#45;liga.csv&#45;&gt;ligue&#45;1.csv</title>
<path fill="none" stroke="#fcbba1" stroke-width="1.14" d="M1172.85,-832.36C1069.27,-907.03 919.84,-1017.7 815.83,-1096.73"/>
<polygon fill="#fcbba1" stroke="#fcbba1" stroke-width="1.14" points="813.64,-1094.01 807.8,-1102.85 817.88,-1099.58 813.64,-1094.01"/>
</g>
<!-- premier&#45;liga.csv&#45;&gt;premier&#45;league.csv -->
<g id="edge34" class="edge">
<title>premier&#45;liga.csv&#45;&gt;premier&#45;league.csv</title>
<path fill="none" stroke="#fcbba1" stroke-width="0.86" d="M1209.72,-869.46C1176.51,-920.79 1138.39,-981.13 1105.71,-1034.09"/>
<polygon fill="#fcbba1" stroke="#fcbba1" stroke-width="0.86" points="1102.57,-1032.51 1100.3,-1042.86 1108.53,-1036.18 1102.57,-1032.51"/>
</g>
<!-- premier&#45;liga.csv&#45;&gt;primera&#45;division.csv -->
<g id="edge30" class="edge">
<title>premier&#45;liga.csv&#45;&gt;primera&#45;division.csv</title>
<path fill="none" stroke="#fcbba1" stroke-width="1.14" d="M1205.62,-635.17C1121.51,-527.65 993.64,-368.42 904.79,-260.54"/>
<polygon fill="#fcbba1" stroke="#fcbba1" stroke-width="1.14" points="907.26,-258.03 898.19,-252.54 901.85,-262.48 907.26,-258.03"/>
</g>
<!-- premier&#45;liga.csv&#45;&gt;serie&#45;a.csv -->
<g id="edge32" class="edge">
<title>premier&#45;liga.csv&#45;&gt;serie&#45;a.csv</title>
<path fill="none" stroke="#fc9272" stroke-width="1.86" d="M1257.43,-611.13C1246.14,-571.25 1233.39,-527.7 1221.22,-487.46"/>
<polygon fill="#fc9272" stroke="#fc9272" stroke-width="1.86" points="1224.56,-486.4 1218.31,-477.85 1217.86,-488.43 1224.56,-486.4"/>
</g>
<!-- premier&#45;liga.csv&#45;&gt;1&#45;bundesliga.csv -->
<g id="edge33" class="edge">
<title>premier&#45;liga.csv&#45;&gt;1&#45;bundesliga.csv</title>
<path fill="none" stroke="#fc9272" stroke-width="2.43" d="M1166.84,-679.12C1000.1,-587.77 705.78,-431.37 532.37,-341.93"/>
<polygon fill="#fc9272" stroke="#fc9272" stroke-width="2.43" points="533.92,-338.8 523.43,-337.33 530.72,-345.02 533.92,-338.8"/>
</g>
<!-- serie&#45;a.csv&#45;&gt;eredivisie.csv -->
<g id="edge42" class="edge">
<title>serie&#45;a.csv&#45;&gt;eredivisie.csv</title>
<path fill="none" stroke="#ef3b2c" stroke-width="5" d="M1056.73,-429.15C901.69,-552.61 627.03,-777.09 471.31,-907.56"/>
<polygon fill="#ef3b2c" stroke="#ef3b2c" stroke-width="5" points="468.38,-904.31 463.53,-914.08 474,-911.01 468.38,-904.31"/>
</g>
<!-- serie&#45;a.csv&#45;&gt;liga&#45;nos.csv -->
<g id="edge43" class="edge">
<title>serie&#45;a.csv&#45;&gt;liga&#45;nos.csv</title>
<path fill="none" stroke="#fcbba1" stroke-width="1.14" d="M1035.12,-388.21C850.93,-455.57 524.37,-579.74 337.29,-653.5"/>
<polygon fill="#fcbba1" stroke="#fcbba1" stroke-width="1.14" points="335.95,-650.27 327.94,-657.19 338.52,-656.78 335.95,-650.27"/>
</g>
<!-- serie&#45;a.csv&#45;&gt;ligue&#45;1.csv -->
<g id="edge46" class="edge">
<title>serie&#45;a.csv&#45;&gt;ligue&#45;1.csv</title>
<path fill="none" stroke="#cb181d" stroke-width="6" d="M1097,-464.69C1006.54,-621.65 855.25,-892.08 766.43,-1055.54"/>
<polygon fill="#cb181d" stroke="#cb181d" stroke-width="6" points="761.61,-1053.4 761.46,-1064.69 770.84,-1058.41 761.61,-1053.4"/>
</g>
<!-- serie&#45;a.csv&#45;&gt;premier&#45;league.csv -->
<g id="edge48" class="edge">
<title>serie&#45;a.csv&#45;&gt;premier&#45;league.csv</title>
<path fill="none" stroke="#cb181d" stroke-width="6" d="M1141.85,-482.68C1114.23,-630.83 1074.04,-862.93 1049.6,-1015.29"/>
<polygon fill="#cb181d" stroke="#cb181d" stroke-width="6" points="1044.41,-1014.5 1048.01,-1025.2 1054.78,-1016.16 1044.41,-1014.5"/>
</g>
<!-- serie&#45;a.csv&#45;&gt;primera&#45;division.csv -->
<g id="edge44" class="edge">
<title>serie&#45;a.csv&#45;&gt;primera&#45;division.csv</title>
<path fill="none" stroke="#a50f15" stroke-width="7.29" d="M1047.79,-267.53C1014.11,-249 977.41,-229.22 942.94,-211.01"/>
<polygon fill="#a50f15" stroke="#a50f15" stroke-width="7.29" points="945.57,-205.2 933.75,-206.17 939.63,-216.48 945.57,-205.2"/>
</g>
<!-- serie&#45;a.csv&#45;&gt;premier&#45;liga.csv -->
<g id="edge45" class="edge">
<title>serie&#45;a.csv&#45;&gt;premier&#45;liga.csv</title>
<path fill="none" stroke="#fcbba1" stroke-width="0.71" d="M1205.96,-481.37C1217.24,-521.25 1229.99,-564.8 1242.16,-605.04"/>
<polygon fill="#fcbba1" stroke="#fcbba1" stroke-width="0.71" points="1238.82,-606.1 1245.08,-614.65 1245.52,-604.07 1238.82,-606.1"/>
</g>
<!-- serie&#45;a.csv&#45;&gt;1&#45;bundesliga.csv -->
<g id="edge47" class="edge">
<title>serie&#45;a.csv&#45;&gt;1&#45;bundesliga.csv</title>
<path fill="none" stroke="#fc9272" stroke-width="2.71" d="M1028.47,-323.65C892.22,-310.03 687.77,-292.24 547.95,-281.81"/>
<polygon fill="#fc9272" stroke="#fc9272" stroke-width="2.71" points="547.81,-278.29 537.58,-281.04 547.29,-285.27 547.81,-278.29"/>
</g>
<!-- 1&#45;bundesliga.csv&#45;&gt;eredivisie.csv -->
<g id="edge49" class="edge">
<title>1&#45;bundesliga.csv&#45;&gt;eredivisie.csv</title>
<path fill="none" stroke="#a50f15" stroke-width="8" d="M380.68,-417.55C372.44,-543.29 362.83,-725.54 357.62,-854.41"/>
<polygon fill="#a50f15" stroke="#a50f15" stroke-width="8" points="350.61,-854.49 357.21,-864.76 364.6,-855.05 350.61,-854.49"/>
</g>
<!-- 1&#45;bundesliga.csv&#45;&gt;liga&#45;nos.csv -->
<g id="edge50" class="edge">
<title>1&#45;bundesliga.csv&#45;&gt;liga&#45;nos.csv</title>
<path fill="none" stroke="#fc9272" stroke-width="1.57" d="M328.71,-402.48C304.25,-454.98 276.63,-515.93 252.87,-569.84"/>
<polygon fill="#fc9272" stroke="#fc9272" stroke-width="1.57" points="249.61,-568.56 248.78,-579.13 256.01,-571.38 249.61,-568.56"/>
</g>
<!-- 1&#45;bundesliga.csv&#45;&gt;ligue&#45;1.csv -->
<g id="edge53" class="edge">
<title>1&#45;bundesliga.csv&#45;&gt;ligue&#45;1.csv</title>
<path fill="none" stroke="#ef3b2c" stroke-width="4.71" d="M433.99,-412.58C487.8,-583.91 583.02,-874.07 642.54,-1048.17"/>
<polygon fill="#ef3b2c" stroke="#ef3b2c" stroke-width="4.71" points="638.65,-1049.54 645.79,-1057.66 646.46,-1046.87 638.65,-1049.54"/>
</g>
<!-- 1&#45;bundesliga.csv&#45;&gt;premier&#45;league.csv -->
<g id="edge55" class="edge">
<title>1&#45;bundesliga.csv&#45;&gt;premier&#45;league.csv</title>
<path fill="none" stroke="#a50f15" stroke-width="8.14" d="M473.18,-394.04C590.69,-564.08 810.24,-873.35 935.26,-1044.99"/>
<polygon fill="#a50f15" stroke="#a50f15" stroke-width="8.14" points="929.68,-1049.43 941.33,-1053.32 941.19,-1041.04 929.68,-1049.43"/>
</g>
<!-- 1&#45;bundesliga.csv&#45;&gt;primera&#45;division.csv -->
<g id="edge51" class="edge">
<title>1&#45;bundesliga.csv&#45;&gt;primera&#45;division.csv</title>
<path fill="none" stroke="#cb181d" stroke-width="5.86" d="M532.75,-236.45C573.37,-223.97 617.86,-209.85 658.84,-196.44"/>
<polygon fill="#cb181d" stroke="#cb181d" stroke-width="5.86" points="660.44,-201.31 668.35,-193.32 657.25,-191.57 660.44,-201.31"/>
</g>
<!-- 1&#45;bundesliga.csv&#45;&gt;premier&#45;liga.csv -->
<g id="edge52" class="edge">
<title>1&#45;bundesliga.csv&#45;&gt;premier&#45;liga.csv</title>
<path fill="none" stroke="#fcbba1" stroke-width="0.86" d="M518.67,-345.85C685.41,-437.2 979.73,-593.6 1153.14,-683.04"/>
<polygon fill="#fcbba1" stroke="#fcbba1" stroke-width="0.86" points="1151.59,-686.18 1162.08,-687.65 1154.79,-679.95 1151.59,-686.18"/>
</g>
<!-- 1&#45;bundesliga.csv&#45;&gt;serie&#45;a.csv -->
<g id="edge54" class="edge">
<title>1&#45;bundesliga.csv&#45;&gt;serie&#45;a.csv</title>
<path fill="none" stroke="#ef3b2c" stroke-width="5.14" d="M536.83,-291.77C673.08,-305.39 877.53,-323.18 1017.35,-333.61"/>
<polygon fill="#ef3b2c" stroke="#ef3b2c" stroke-width="5.14" points="1017.42,-338.13 1027.72,-334.38 1018.08,-329.15 1017.42,-338.13"/>
</g>
<!-- championship.csv -->
<g id="node1" class="node">
<title>championship.csv</title>
<ellipse fill="none" stroke="black" cx="144.17" cy="-1800.26" rx="144" ry="144"/>
<text text-anchor="middle" x="144.17" y="-1796.56" font-family="Times New Roman,serif" font-size="14.00" fill="transparent">championship.csv</text>
</g>
<!-- eredivisie.csv -->
<g id="node2" class="node">
<title>eredivisie.csv</title>
<ellipse fill="none" stroke="black" cx="355.13" cy="-1008.91" rx="144" ry="144"/>
<text text-anchor="middle" x="355.13" y="-1005.21" font-family="Times New Roman,serif" font-size="14.00" fill="transparent">eredivisie.csv</text>
</g>
<!-- liga&#45;nos.csv -->
<g id="node3" class="node">
<title>liga&#45;nos.csv</title>
<ellipse fill="none" stroke="black" cx="195.11" cy="-712.88" rx="144" ry="144"/>
<text text-anchor="middle" x="195.11" y="-709.18" font-family="Times New Roman,serif" font-size="14.00" fill="transparent">liga&#45;nos.csv</text>
</g>
<!-- ligue&#45;1.csv -->
<g id="node4" class="node">
<title>ligue&#45;1.csv</title>
<ellipse fill="none" stroke="black" cx="695.43" cy="-1192.91" rx="144" ry="144"/>
<text text-anchor="middle" x="695.43" y="-1189.21" font-family="Times New Roman,serif" font-size="14.00" fill="transparent">ligue&#45;1.csv</text>
</g>
<!-- premier&#45;league.csv -->
<g id="node5" class="node">
<title>premier&#45;league.csv</title>
<ellipse fill="none" stroke="black" cx="1028.62" cy="-1168.07" rx="144" ry="144"/>
<text text-anchor="middle" x="1028.62" y="-1164.37" font-family="Times New Roman,serif" font-size="14.00" fill="transparent">premier&#45;league.csv</text>
</g>
<!-- primera&#45;division.csv -->
<g id="node6" class="node">
<title>primera&#45;division.csv</title>
<ellipse fill="none" stroke="black" cx="803.72" cy="-143.54" rx="144" ry="144"/>
<text text-anchor="middle" x="803.72" y="-139.84" font-family="Times New Roman,serif" font-size="14.00" fill="transparent">primera&#45;division.csv</text>
</g>
<!-- premier&#45;liga.csv -->
<g id="node7" class="node">
<title>premier&#45;liga.csv</title>
<ellipse fill="none" stroke="black" cx="1291.8" cy="-751.03" rx="144" ry="144"/>
<text text-anchor="middle" x="1291.8" y="-747.33" font-family="Times New Roman,serif" font-size="14.00" fill="transparent">premier&#45;liga.csv</text>
</g>
<!-- serie&#45;a.csv -->
<g id="node8" class="node">
<title>serie&#45;a.csv</title>
<ellipse fill="none" stroke="black" cx="1171.59" cy="-341.47" rx="144" ry="144"/>
<text text-anchor="middle" x="1171.59" y="-337.77" font-family="Times New Roman,serif" font-size="14.00" fill="transparent">serie&#45;a.csv</text>
</g>
<!-- 1&#45;bundesliga.csv -->
<g id="node9" class="node">
<title>1&#45;bundesliga.csv</title>
<ellipse fill="none" stroke="black" cx="393.71" cy="-273.95" rx="144" ry="144"/>
<text text-anchor="middle" x="393.71" y="-270.25" font-family="Times New Roman,serif" font-size="14.00" fill="transparent">1&#45;bundesliga.csv</text>
</g>
</g>
</svg>
